<?xml version="1.0" standalone="no"?>
<!DOCTYPE svg PUBLIC "-//W3C//DTD SVG 20010904//EN"
 "http://www.w3.org/TR/2001/REC-SVG-20010904/DTD/svg10.dtd">
<svg version="1.0" xmlns="http://www.w3.org/2000/svg"
 width="90.000000pt" height="51.000000pt" viewBox="0 0 90.000000 51.000000"
 preserveAspectRatio="xMidYMid meet">

<g transform="translate(0.000000,51.000000) scale(0.100000,-0.100000)"
fill="#000000" stroke="none">
<path d="M0 255 l0 -255 450 0 450 0 0 255 0 255 -450 0 -450 0 0 -255z m190
78 l1 -48 42 48 c31 35 49 47 70 47 15 0 27 -3 27 -6 0 -3 -16 -26 -36 -50
l-37 -44 25 -38 c14 -20 33 -49 42 -64 l18 -28 -35 0 c-31 0 -38 5 -62 47 -26
43 -29 45 -41 28 -8 -10 -14 -31 -14 -47 0 -23 -4 -28 -25 -28 l-25 0 0 115 0
115 25 0 c23 0 25 -4 25 -47z m230 -68 l0 -115 -30 0 -30 0 0 115 0 115 30 0
30 0 0 -115z m88 15 c8 -25 16 -52 19 -60 3 -8 13 12 22 45 14 53 19 60 44 63
35 4 34 0 -11 -123 -39 -105 -63 -131 -109 -119 -26 7 -19 44 8 44 24 0 24 0
-11 105 -16 49 -30 90 -30 93 0 2 12 2 28 0 23 -2 29 -10 40 -48z m187 40 c4
-7 13 -7 26 0 24 13 39 5 39 -21 0 -12 -7 -19 -18 -19 -30 0 -42 -22 -42 -77
0 -52 0 -53 -30 -53 l-30 0 0 83 c0 46 3 87 7 90 10 10 41 8 48 -3z m123 -148
c-4 -22 -46 -28 -54 -8 -4 9 -1 23 6 31 16 19 53 1 48 -23z"/>
</g>
</svg>
